<svg width="583" height="633" viewBox="0 0 583 633" fill="none" xmlns="http://www.w3.org/2000/svg">
<path d="M448.586 230.819C433.353 190.212 373.213 201.155 373.213 244.53V437.225C373.213 488.555 327.176 530.162 270.394 530.162C213.612 530.162 167.574 488.555 167.574 437.225C167.574 385.896 213.612 344.289 270.394 344.289C301.693 344.289 329.711 356.946 348.576 376.898V38.9697C348.576 17.4468 331.148 0 309.649 0H248.006C231.808 0 217.299 10.0418 211.582 25.2144L2.54039 580.107C-7.06225 605.596 11.748 632.832 38.9646 632.832H543.24C570.435 632.832 589.245 605.64 579.676 580.151L448.575 230.819H448.586Z" fill="white"/>
</svg>
