<?xml version="1.0" encoding="UTF-8"?>
<svg id="Layer_2" data-name="Layer 2" xmlns="http://www.w3.org/2000/svg" viewBox="0 0 576 101.4">
  <defs>
    <style>
      .cls-1 {
        fill: #363a87;
      }

      .cls-2 {
        fill: #fff;
      }
    </style>
  </defs>
  <g id="Layer_3" data-name="Layer 3">
    <g>
      <g>
        <path class="cls-2" d="M155.97,53.56h-20.68l-5.36,14.55h-6.68l19.08-48.75h6.69l19.01,48.75h-6.61l-5.43-14.55ZM153.89,47.99l-5.5-14.69c-.97-2.57-2.09-5.78-2.78-7.87h-.07c-.84,2.58-1.6,4.8-2.72,7.87l-5.43,14.69h16.5Z"/>
        <path class="cls-2" d="M206.12,50.7c0,11-6.41,18.24-15.81,18.24-4.87,0-8.56-1.67-11.21-5.36v18.45h-6.27v-48.75h6.27v5.08c2.58-3.97,6.34-5.92,11-5.92,9.26,0,16.01,6.89,16.01,18.24ZM199.22,50.7c0-8.15-2.09-13.3-10.24-13.3-6.68,0-10.1,4.46-10.1,13.23,0,6.48,1.46,13.3,9.96,13.3,7.8,0,10.38-4.87,10.38-13.23Z"/>
        <path class="cls-2" d="M246.58,50.7c0,11-6.41,18.24-15.81,18.24-4.87,0-8.56-1.67-11.21-5.36v18.45h-6.27v-48.75h6.27v5.08c2.58-3.97,6.34-5.92,11-5.92,9.26,0,16.02,6.89,16.02,18.24ZM239.68,50.7c0-8.15-2.09-13.3-10.24-13.3-6.68,0-10.1,4.46-10.1,13.23,0,6.48,1.46,13.3,9.96,13.3,7.8,0,10.38-4.87,10.38-13.23Z"/>
        <path class="cls-2" d="M273.18,32.46l-.14,5.92c-.42-.07-.97-.07-1.6-.07-6.62,0-11.42,2.09-11.42,13.3v16.5h-6.27v-34.82h6.27v6.13c.97-3.34,5.15-6.48,10.86-6.89.49-.07,1.81-.07,2.3-.07Z"/>
        <path class="cls-2" d="M274.86,50.7c0-10.58,6.62-18.24,17.41-18.24s17.34,7.73,17.34,18.24-6.89,18.24-17.34,18.24-17.41-6.89-17.41-18.24ZM302.85,50.7c0-8.22-2.71-13.3-10.58-13.3s-10.66,5.08-10.66,13.3,2.58,13.3,10.66,13.3,10.58-5.08,10.58-13.3Z"/>
        <path class="cls-2" d="M348.47,68.11c-1.32.21-2.51.28-3.9.28-3.83,0-5.92-1.81-6.27-5.43-1.95,3.97-5.78,5.99-11.7,5.99s-11.7-3.2-11.7-10.03c0-7.52,6.34-9.61,11.84-10.66l11.49-2.23c0-3.13-.14-4.88-1.18-6.34-.97-1.39-3.27-2.3-6.34-2.3-6.06,0-8.49,2.23-8.49,7.52l-6.13-.84c.14-4.18,1.6-7.24,4.32-9.05,2.51-1.67,6.2-2.58,10.66-2.58,8.77,0,13.23,3.9,13.23,11.49v16.64c0,1.81,0,2.65,2.02,2.65.56,0,1.11-.07,2.02-.28l.14,5.15ZM338.23,50.7l-10.51,2.3c-3.69.84-6.41,1.88-6.41,5.85,0,3.27,2.86,5.08,6.27,5.08,7.59,0,10.65-3.97,10.65-8.98v-4.25Z"/>
        <path class="cls-2" d="M352.23,50.7c0-10.72,6.62-18.24,17.27-18.24,8.84,0,13.86,5.29,15.25,11.91l-5.85,1.11c-1.04-4.04-3.13-8.01-9.4-8.01-8.5,0-10.38,5.57-10.38,13.23s1.95,13.23,10.38,13.23c5.36,0,8.15-2.09,9.47-7.1l5.92.63c-1.25,7.03-7.31,11.49-15.39,11.49-10.65,0-17.27-6.82-17.27-18.24Z"/>
        <path class="cls-2" d="M421.38,47.29v20.82h-6.48v-20.47c0-3.2.07-5.92-2.09-7.94-1.95-1.95-4.25-2.02-6.2-2.02-3.13,0-9.05.77-9.05,10.86v19.57h-6.27V19.37h6.27v19.15c1.95-4.18,5.85-6.06,10.72-6.06,4.6,0,7.87,1.25,10.38,3.9,2.65,2.85,2.72,7.24,2.72,10.93Z"/>
        <path class="cls-2" d="M430.44,19.37h12.12l11.56,22.49c1.95,3.83,4.95,9.33,6.62,13.79h.14c-.28-4.66-.42-11.21-.42-14.07v-22.22h9.89v48.75h-12.12l-12.12-23.26c-1.67-3.13-4.53-8.36-6.06-12.67h-.14c.28,5.36.42,12.12.42,13.51v22.42h-9.89V19.37Z"/>
        <path class="cls-2" d="M476.75,50.7c0-10.58,6.82-18.24,18.1-18.24s18.04,7.73,18.04,18.24-7.1,18.24-18.04,18.24-18.1-6.89-18.1-18.24ZM502.45,50.7c0-8.36-2.37-11.28-7.59-11.28s-7.66,2.92-7.66,11.28,2.37,11.28,7.66,11.28,7.59-2.92,7.59-11.28Z"/>
        <path class="cls-2" d="M520.63,58.64v-17.69h-5.01v-7.66h5.01v-9.68h9.61v9.68h7.1v7.66h-7.1v16.57c0,1.95,1.25,2.51,3.62,2.51.91,0,2.09-.14,3.2-.35l.14,8.29c-1.11.28-3.13.49-5.15.49-6.68,0-11.42-2.58-11.42-9.82Z"/>
        <path class="cls-2" d="M575.99,53.21h-25.49c.07,5.85,2.86,8.84,8.08,8.84,4.46,0,6.69-2.02,7.38-5.64l9.47.84c-2.02,7.8-7.87,11.7-16.85,11.7-5.43,0-9.75-1.74-12.67-4.59-3.34-3.27-5.01-7.87-5.01-13.72s1.53-10.31,4.94-13.58c3.06-2.99,7.24-4.6,12.67-4.6s9.82,1.74,12.74,4.87c3.34,3.62,4.88,9.05,4.74,15.88ZM552.32,41.79c-.97,1.25-1.53,2.85-1.74,4.74h15.53c-.21-2.16-.77-3.97-2.02-5.29-1.32-1.39-3.06-2.02-5.57-2.02-2.85,0-4.87.84-6.2,2.58Z"/>
      </g>
      <rect class="cls-2" width="101.4" height="101.4" rx="8" ry="8"/>
      <path class="cls-1" d="M66.31,39.71c-1.51-4.02-7.47-2.94-7.47,1.36v19.08h0c0,5.08-4.56,9.2-10.19,9.2s-10.19-4.12-10.19-9.2,4.56-9.2,10.19-9.2c3.1,0,5.88,1.25,7.75,3.23V20.71c0-2.13-1.73-3.86-3.86-3.86h-6.11c-1.61,0-3.04.99-3.61,2.5l-20.72,54.95c-.95,2.52.91,5.22,3.61,5.22h49.99c2.7,0,4.56-2.69,3.61-5.22l-13-34.59Z"/>
    </g>
  </g>
</svg>