<?xml version="1.0" encoding="UTF-8"?>
<svg id="Layer_2" data-name="Layer 2" xmlns="http://www.w3.org/2000/svg" viewBox="0 0 530.51 576">
  <defs>
    <style>
      .cls-1 {
        fill: #fff;
      }
    </style>
  </defs>
  <g id="Layer_3" data-name="Layer 3">
    <path class="cls-1" d="M408.75,210.09c-13.88-36.96-68.68-27-68.68,12.48v175.39h0c0,46.72-41.95,84.59-93.69,84.59s-93.69-37.87-93.69-84.59,41.95-84.59,93.69-84.59c28.52,0,54.05,11.52,71.24,29.68V35.47c0-19.59-15.88-35.47-35.47-35.47h-56.17c-14.76,0-27.98,9.14-33.19,22.95L2.31,528.01c-8.75,23.2,8.39,47.99,33.19,47.99h459.5c24.78,0,41.92-24.75,33.2-47.95l-119.46-317.96Z"/>
  </g>
</svg>