<?xml version="1.0" encoding="UTF-8"?>
<svg id="Layer_2" data-name="Layer 2" xmlns="http://www.w3.org/2000/svg" viewBox="0 0 523.28 576">
  <defs>
    <style>
      .cls-1 {
        fill: #95222d;
      }
    </style>
  </defs>
  <g id="Layer_3" data-name="Layer 3">
    <g>
      <g>
        <path class="cls-1" d="M37.83,543.08H13.92l-6.2,16.82H0l22.05-56.34h7.73l21.97,56.34h-7.64l-6.28-16.82ZM35.41,536.64l-6.36-16.98c-1.13-2.98-2.41-6.68-3.22-9.09h-.08c-.97,2.98-1.85,5.55-3.14,9.09l-6.28,16.98h19.08Z"/>
        <path class="cls-1" d="M95.78,539.78c0,12.72-7.4,21.09-18.27,21.09-5.63,0-9.9-1.93-12.96-6.2v21.33h-7.24v-56.34h7.24v5.88c2.98-4.59,7.32-6.84,12.72-6.84,10.7,0,18.51,7.97,18.51,21.09ZM87.81,539.78c0-9.42-2.41-15.37-11.83-15.37-7.73,0-11.67,5.15-11.67,15.29,0,7.49,1.69,15.37,11.51,15.37,9.02,0,11.99-5.63,11.99-15.29Z"/>
        <path class="cls-1" d="M142.55,539.78c0,12.72-7.41,21.09-18.27,21.09-5.63,0-9.9-1.93-12.96-6.2v21.33h-7.24v-56.34h7.24v5.88c2.98-4.59,7.32-6.84,12.72-6.84,10.7,0,18.51,7.97,18.51,21.09ZM134.58,539.78c0-9.42-2.41-15.37-11.83-15.37-7.73,0-11.67,5.15-11.67,15.29,0,7.49,1.69,15.37,11.51,15.37,9.02,0,11.99-5.63,11.99-15.29Z"/>
        <path class="cls-1" d="M173.29,518.7l-.16,6.84c-.48-.08-1.13-.08-1.85-.08-7.65,0-13.2,2.41-13.2,15.37v19.08h-7.24v-40.24h7.24v7.08c1.13-3.86,5.96-7.49,12.56-7.97.56-.08,2.09-.08,2.66-.08Z"/>
        <path class="cls-1" d="M175.23,539.78c0-12.23,7.65-21.09,20.12-21.09s20.04,8.93,20.04,21.09-7.97,21.09-20.04,21.09-20.12-7.97-20.12-21.09ZM207.58,539.78c0-9.5-3.14-15.37-12.23-15.37s-12.31,5.88-12.31,15.37,2.98,15.37,12.31,15.37,12.23-5.87,12.23-15.37Z"/>
        <path class="cls-1" d="M260.31,559.9c-1.53.24-2.9.32-4.51.32-4.43,0-6.84-2.09-7.24-6.28-2.25,4.59-6.68,6.92-13.52,6.92s-13.52-3.7-13.52-11.59c0-8.69,7.33-11.11,13.68-12.31l13.28-2.57c0-3.62-.16-5.64-1.37-7.33-1.13-1.61-3.78-2.66-7.33-2.66-7,0-9.82,2.58-9.82,8.69l-7.08-.97c.16-4.83,1.85-8.37,4.99-10.46,2.9-1.93,7.16-2.98,12.31-2.98,10.14,0,15.29,4.51,15.29,13.28v19.23c0,2.09,0,3.06,2.33,3.06.64,0,1.29-.08,2.33-.32l.16,5.96ZM248.47,539.78l-12.15,2.66c-4.27.97-7.41,2.17-7.41,6.76,0,3.78,3.3,5.87,7.24,5.87,8.77,0,12.31-4.59,12.31-10.38v-4.91Z"/>
        <path class="cls-1" d="M264.66,539.78c0-12.39,7.65-21.09,19.96-21.09,10.22,0,16.02,6.12,17.63,13.76l-6.76,1.29c-1.21-4.67-3.62-9.26-10.87-9.26-9.82,0-11.99,6.44-11.99,15.29s2.25,15.29,11.99,15.29c6.2,0,9.42-2.41,10.95-8.21l6.84.72c-1.45,8.13-8.45,13.28-17.79,13.28-12.31,0-19.96-7.89-19.96-21.09Z"/>
        <path class="cls-1" d="M344.58,535.84v24.06h-7.49v-23.66c0-3.7.08-6.84-2.41-9.18-2.25-2.25-4.91-2.33-7.16-2.33-3.62,0-10.46.89-10.46,12.56v22.61h-7.24v-56.34h7.24v22.13c2.25-4.83,6.76-7,12.39-7,5.31,0,9.1,1.45,11.99,4.51,3.06,3.3,3.14,8.37,3.14,12.64Z"/>
        <path class="cls-1" d="M355.05,503.56h14l13.36,26c2.26,4.43,5.72,10.78,7.65,15.94h.16c-.32-5.39-.48-12.96-.48-16.26v-25.68h11.43v56.34h-14l-14-26.88c-1.93-3.62-5.23-9.66-7-14.65h-.16c.32,6.2.48,14,.48,15.61v25.92h-11.43v-56.34Z"/>
        <path class="cls-1" d="M408.58,539.78c0-12.23,7.89-21.09,20.92-21.09s20.85,8.93,20.85,21.09-8.21,21.09-20.85,21.09-20.92-7.97-20.92-21.09ZM438.27,539.78c0-9.66-2.74-13.04-8.77-13.04s-8.85,3.38-8.85,13.04,2.74,13.04,8.85,13.04,8.77-3.38,8.77-13.04Z"/>
        <path class="cls-1" d="M459.29,548.96v-20.44h-5.79v-8.85h5.79v-11.19h11.11v11.19h8.21v8.85h-8.21v19.15c0,2.25,1.45,2.9,4.18,2.9,1.05,0,2.41-.16,3.7-.4l.16,9.58c-1.29.32-3.62.56-5.96.56-7.73,0-13.2-2.98-13.2-11.35Z"/>
        <path class="cls-1" d="M523.27,542.68h-29.46c.08,6.76,3.3,10.22,9.34,10.22,5.15,0,7.73-2.33,8.53-6.52l10.95.97c-2.33,9.01-9.09,13.52-19.48,13.52-6.28,0-11.27-2.01-14.65-5.31-3.86-3.78-5.79-9.1-5.79-15.86s1.77-11.91,5.71-15.69c3.54-3.46,8.37-5.31,14.65-5.31s11.35,2.01,14.73,5.63c3.86,4.19,5.64,10.46,5.47,18.35ZM495.91,529.48c-1.13,1.45-1.77,3.3-2.01,5.47h17.95c-.24-2.5-.89-4.59-2.33-6.12-1.53-1.61-3.54-2.33-6.44-2.33-3.3,0-5.63.97-7.16,2.98Z"/>
      </g>
      <path class="cls-1" d="M375.77,167.11c-11.04-29.39-54.62-21.48-54.62,9.92v139.51h0c0,37.16-33.36,67.28-74.52,67.28s-74.52-30.12-74.52-67.28,33.36-67.28,74.52-67.28c22.69,0,42.99,9.17,56.66,23.61V28.21c0-15.58-12.63-28.21-28.21-28.21h-44.68c-11.74,0-22.26,7.27-26.4,18.26L52.49,419.98c-6.96,18.45,6.68,38.17,26.4,38.17h365.49c19.71,0,33.34-19.69,26.41-38.14l-95.02-252.91Z"/>
    </g>
  </g>
</svg>