<?xml version="1.0" encoding="UTF-8"?>
<svg id="Layer_2" data-name="Layer 2" xmlns="http://www.w3.org/2000/svg" viewBox="0 0 576 79.73">
  <defs>
    <style>
      .cls-1 {
        fill: #95222d;
      }
    </style>
  </defs>
  <g id="Layer_3" data-name="Layer 3">
    <g>
      <path class="cls-1" d="M41.64,43.5H15.32l-6.82,18.52H0L24.27,0h8.51l24.18,62.01h-8.41l-6.91-18.52ZM38.98,36.41l-7-18.69c-1.24-3.28-2.66-7.35-3.54-10.01h-.09c-1.06,3.28-2.04,6.11-3.46,10.01l-6.91,18.69h21Z"/>
      <path class="cls-1" d="M105.43,39.87c0,14-8.15,23.21-20.11,23.21-6.2,0-10.89-2.12-14.26-6.82v23.48h-7.97V17.72h7.97v6.47c3.28-5.05,8.06-7.53,14-7.53,11.78,0,20.37,8.77,20.37,23.21ZM96.66,39.87c0-10.36-2.66-16.92-13.02-16.92-8.5,0-12.85,5.67-12.85,16.83,0,8.24,1.86,16.92,12.67,16.92,9.92,0,13.2-6.2,13.2-16.83Z"/>
      <path class="cls-1" d="M156.91,39.87c0,14-8.15,23.21-20.11,23.21-6.2,0-10.89-2.12-14.26-6.82v23.48h-7.97V17.72h7.97v6.47c3.28-5.05,8.06-7.53,14-7.53,11.78,0,20.38,8.77,20.38,23.21ZM148.13,39.87c0-10.36-2.66-16.92-13.02-16.92-8.5,0-12.85,5.67-12.85,16.83,0,8.24,1.86,16.92,12.67,16.92,9.92,0,13.2-6.2,13.2-16.83Z"/>
      <path class="cls-1" d="M190.75,16.66l-.18,7.53c-.53-.09-1.24-.09-2.04-.09-8.42,0-14.53,2.66-14.53,16.92v21h-7.97V17.72h7.97v7.8c1.24-4.25,6.56-8.24,13.82-8.77.62-.09,2.3-.09,2.92-.09Z"/>
      <path class="cls-1" d="M192.88,39.87c0-13.46,8.42-23.21,22.15-23.21s22.06,9.83,22.06,23.21-8.77,23.21-22.06,23.21-22.15-8.77-22.15-23.21ZM228.5,39.87c0-10.45-3.45-16.92-13.46-16.92s-13.56,6.47-13.56,16.92,3.28,16.92,13.56,16.92,13.46-6.47,13.46-16.92Z"/>
      <path class="cls-1" d="M286.53,62.01c-1.68.27-3.19.35-4.96.35-4.87,0-7.53-2.3-7.97-6.91-2.48,5.05-7.35,7.62-14.88,7.62s-14.88-4.07-14.88-12.76c0-9.57,8.06-12.23,15.06-13.56l14.62-2.83c0-3.99-.18-6.2-1.5-8.06-1.24-1.77-4.17-2.92-8.06-2.92-7.71,0-10.81,2.84-10.81,9.57l-7.8-1.06c.18-5.32,2.04-9.21,5.49-11.52,3.19-2.13,7.89-3.28,13.56-3.28,11.16,0,16.83,4.96,16.83,14.62v21.17c0,2.3,0,3.37,2.57,3.37.71,0,1.42-.09,2.57-.36l.18,6.56ZM273.51,39.87l-13.38,2.93c-4.7,1.06-8.15,2.39-8.15,7.44,0,4.16,3.63,6.47,7.97,6.47,9.65,0,13.55-5.05,13.55-11.43v-5.41Z"/>
      <path class="cls-1" d="M291.32,39.87c0-13.64,8.42-23.21,21.97-23.21,11.25,0,17.63,6.73,19.4,15.15l-7.44,1.42c-1.33-5.14-3.99-10.19-11.96-10.19-10.81,0-13.2,7.09-13.2,16.83s2.48,16.83,13.2,16.83c6.82,0,10.37-2.66,12.05-9.03l7.53.8c-1.59,8.95-9.3,14.62-19.58,14.62-13.55,0-21.97-8.68-21.97-23.21Z"/>
      <path class="cls-1" d="M379.29,35.53v26.49h-8.24v-26.05c0-4.07.09-7.53-2.66-10.1-2.48-2.48-5.4-2.57-7.88-2.57-3.99,0-11.52.98-11.52,13.82v24.89h-7.97V0h7.97v24.36c2.48-5.32,7.44-7.71,13.64-7.71,5.85,0,10.01,1.59,13.2,4.96,3.37,3.63,3.46,9.21,3.46,13.91Z"/>
      <path class="cls-1" d="M390.82,0h15.42l14.7,28.62c2.48,4.87,6.29,11.87,8.42,17.54h.18c-.36-5.93-.53-14.26-.53-17.89V0h12.58v62.01h-15.42l-15.41-29.59c-2.13-3.99-5.76-10.63-7.71-16.12h-.18c.36,6.82.53,15.41.53,17.18v28.53h-12.58V0Z"/>
      <path class="cls-1" d="M449.74,39.87c0-13.46,8.68-23.21,23.03-23.21s22.95,9.83,22.95,23.21-9.04,23.21-22.95,23.21-23.03-8.77-23.03-23.21ZM482.43,39.87c0-10.63-3.01-14.35-9.66-14.35s-9.74,3.72-9.74,14.35,3.01,14.35,9.74,14.35,9.66-3.72,9.66-14.35Z"/>
      <path class="cls-1" d="M505.56,49.97v-22.5h-6.38v-9.75h6.38V5.41h12.23v12.31h9.03v9.75h-9.03v21.08c0,2.48,1.59,3.19,4.61,3.19,1.15,0,2.66-.18,4.08-.44l.18,10.54c-1.42.36-3.99.62-6.56.62-8.5,0-14.53-3.28-14.53-12.49Z"/>
      <path class="cls-1" d="M575.99,43.06h-32.43c.09,7.44,3.63,11.25,10.28,11.25,5.67,0,8.51-2.57,9.39-7.17l12.05,1.06c-2.57,9.92-10.01,14.88-21.44,14.88-6.91,0-12.4-2.21-16.12-5.85-4.25-4.17-6.38-10.01-6.38-17.45s1.95-13.11,6.29-17.27c3.9-3.81,9.21-5.85,16.12-5.85s12.49,2.21,16.21,6.2c4.25,4.61,6.2,11.52,6.03,20.2ZM545.87,28.53c-1.24,1.6-1.95,3.63-2.22,6.03h19.76c-.27-2.75-.98-5.05-2.57-6.73-1.68-1.77-3.9-2.57-7.09-2.57-3.63,0-6.2,1.06-7.88,3.28Z"/>
    </g>
  </g>
</svg>