<svg width="1024" height="1024" viewBox="0 0 1024 1024" fill="none" xmlns="http://www.w3.org/2000/svg">
<rect width="1024" height="1024" fill="#FF3A4E"/>
<g clip-path="url(#clip0_70_1480)">
<path d="M662.135 402.086C647.649 363.491 590.491 373.895 590.491 415.119V598.195C590.491 646.97 546.699 686.46 492.728 686.46C438.757 686.46 394.965 646.914 394.965 598.195C394.965 549.475 438.757 509.929 492.728 509.929C522.482 509.929 549.159 521.955 567.057 540.917V219.85C567.057 199.378 550.502 182.821 530.032 182.821H471.419C456.039 182.821 442.224 192.386 436.799 206.761L237.974 733.893C228.857 758.113 246.755 783.955 272.593 783.955H752.124C777.963 783.955 795.86 758.113 786.799 733.893L662.135 402.03V402.086Z" fill="white"/>
</g>
<defs>
<clipPath id="clip0_70_1480">
<rect width="553.635" height="601.19" fill="white" transform="translate(235.569 182.821)"/>
</clipPath>
</defs>
</svg>
