<svg width="1024" height="1024" viewBox="0 0 1024 1024" fill="none" xmlns="http://www.w3.org/2000/svg">
<rect width="1024" height="1024" fill="white"/>
<g clip-path="url(#clip0_70_1489)">
<path d="M670.016 397.806C654.769 357.179 594.601 368.131 594.601 411.525V604.236C594.601 655.578 548.505 697.147 491.693 697.147C434.882 697.147 388.785 655.519 388.785 604.236C388.785 552.952 434.882 511.325 491.693 511.325C523.013 511.325 551.095 523.984 569.934 543.944V205.978C569.934 184.428 552.508 167 530.961 167H469.263C453.073 167 438.532 177.068 432.821 192.2L223.531 747.076C213.935 772.571 232.774 799.773 259.973 799.773H764.742C791.94 799.773 810.779 772.571 801.242 747.076L670.016 397.747V397.806Z" fill="#3A3AFF"/>
</g>
<defs>
<clipPath id="clip0_70_1489">
<rect width="582.774" height="632.832" fill="white" transform="translate(221 167)"/>
</clipPath>
</defs>
</svg>
